<svg width="24" height="24" viewBox="0 0 24 24" fill="none" xmlns="http://www.w3.org/2000/svg">
<path d="M12 2C6.48 2 2 6.48 2 12C2 17.52 6.48 22 12 22C17.52 22 22 17.52 22 12C22 6.48 17.52 2 12 2ZM12 20C7.59 20 4 16.41 4 12C4 7.59 7.59 4 12 4C16.41 4 20 7.59 20 12C20 16.41 16.41 20 12 20ZM12.31 11.14C12.12 10.85 11.91 10.58 11.69 10.33C11.5 10.12 11.28 9.91 11.07 9.71C10.85 9.5 10.66 9.31 10.5 9.14C10.34 8.97 10.21 8.81 10.12 8.67C10.03 8.53 9.98 8.39 9.98 8.25C9.98 8.11 10.02 7.99 10.1 7.89C10.18 7.79 10.29 7.74 10.43 7.74C10.57 7.74 10.69 7.79 10.79 7.89C10.89 7.99 10.94 8.12 10.94 8.28C10.94 8.4 10.99 8.53 11.09 8.67C11.19 8.81 11.31 8.96 11.46 9.12C11.61 9.28 11.78 9.45 11.97 9.63C12.16 9.81 12.35 10 12.55 10.19C12.75 10.38 12.94 10.58 13.12 10.78C13.3 10.98 13.45 11.17 13.58 11.35C13.71 11.53 13.77 11.7 13.77 11.86C13.77 12.02 13.72 12.16 13.62 12.28C13.52 12.4 13.39 12.46 13.23 12.46C13.07 12.46 12.93 12.4 12.81 12.28C12.69 12.16 12.6 12 12.54 11.8C12.48 11.6 12.41 11.38 12.31 11.14ZM10.85 15.25C10.69 15.25 10.56 15.19 10.46 15.07C10.36 14.95 10.31 14.8 10.31 14.62C10.31 14.44 10.36 14.29 10.46 14.17C10.56 14.05 10.69 13.99 10.85 13.99C11.01 13.99 11.14 14.05 11.24 14.17C11.34 14.29 11.39 14.44 11.39 14.62C11.39 14.8 11.34 14.95 11.24 15.07C11.14 15.19 11.01 15.25 10.85 15.25Z" fill="#6C5CE7"/>
</svg>