<svg width="24" height="24" viewBox="0 0 24 24" fill="none" xmlns="http://www.w3.org/2000/svg">
<path d="M19 7H5C3.3 7 2 8.3 2 10V18C2 19.7 3.3 21 5 21H19C20.7 21 22 19.7 22 18V10C22 8.3 20.7 7 19 7ZM5 9H19C19.6 9 20 9.4 20 10V11H4V10C4 9.4 4.4 9 5 9ZM19 19H5C4.4 19 4 18.6 4 18V13H20V18C20 18.6 19.6 19 19 19Z" fill="#6C5CE7"/>
<path d="M16 15.5C16.8284 15.5 17.5 14.8284 17.5 14C17.5 13.1716 16.8284 12.5 16 12.5C15.1716 12.5 14.5 13.1716 14.5 14C14.5 14.8284 15.1716 15.5 16 15.5Z" fill="#6C5CE7"/>
</svg>